<svg width="16" height="15" viewBox="0 0 16 15" fill="none" xmlns="http://www.w3.org/2000/svg">
<g id="Group 1000004253">
<path id="Star 6" d="M4.5496 5.93429C4.73143 5.55712 5.26857 5.55712 5.4504 5.93429L6.55047 8.21626C6.5996 8.31817 6.68183 8.4004 6.78374 8.44953L9.06571 9.5496C9.44287 9.73143 9.44288 10.2686 9.06571 10.4504L6.78374 11.5505C6.68183 11.5996 6.5996 11.6818 6.55047 11.7837L5.4504 14.0657C5.26857 14.4429 4.73143 14.4429 4.5496 14.0657L3.44953 11.7837C3.4004 11.6818 3.31817 11.5996 3.21626 11.5505L0.934293 10.4504C0.557125 10.2686 0.557125 9.73143 0.934293 9.5496L3.21626 8.44953C3.31817 8.4004 3.4004 8.31817 3.44953 8.21626L4.5496 5.93429Z" fill="url(#paint0_linear_1389_18929)"/>
<path id="Star 7" d="M12.0027 0.616634C12.1227 0.367703 12.4773 0.367702 12.5973 0.616633L13.3233 2.12273C13.3557 2.18999 13.41 2.24427 13.4773 2.27669L14.9834 3.00274C15.2323 3.12274 15.2323 3.47726 14.9834 3.59726L13.4773 4.32331C13.41 4.35573 13.3557 4.41001 13.3233 4.47727L12.5973 5.98337C12.4773 6.2323 12.1227 6.2323 12.0027 5.98337L11.2767 4.47727C11.2443 4.41001 11.19 4.35573 11.1227 4.32331L9.61663 3.59726C9.3677 3.47726 9.3677 3.12274 9.61663 3.00274L11.1227 2.27669C11.19 2.24427 11.2443 2.18999 11.2767 2.12273L12.0027 0.616634Z" fill="url(#paint1_linear_1389_18929)"/>
</g>
<defs>
<linearGradient id="paint0_linear_1389_18929" x1="6.08974" y1="8" x2="-0.848246" y2="13.4004" gradientUnits="userSpaceOnUse">
<stop offset="0.0136887" stop-color="#75B5FF"/>
<stop offset="1" stop-color="#0070F4"/>
</linearGradient>
<linearGradient id="paint1_linear_1389_18929" x1="13.0192" y1="1.98" x2="8.44016" y2="5.5443" gradientUnits="userSpaceOnUse">
<stop offset="0.0136887" stop-color="#75B5FF"/>
<stop offset="1" stop-color="#0070F4"/>
</linearGradient>
</defs>
</svg>
